The Wounds (1998) DVDRip AC3 StoneBoyTony

Plot:

 This film follows two Belgrade youths on their rise to gangster legends  
 in a decaying society.

 Genre: Comedy | Crime | Drama
 
 Director: Srdjan Dragojevic
  
 Writer: Srdjan Dragojevic

 Stars:Dusan Pekic, Milan Maric and Dragan Bjelogrlic
 
 General

 Unique ID : 0
 Complete name : The Wounds (1998) DVDRip AC3 StoneBoyTony.mkv
 Format : Matroska
 Format version : Version 2
 File size : 1.00 GiB
 Duration : 1h 38mn
 Overall bit rate : 1 448 Kbps
 Movie name : The Wounds (1998) DVDRip AC3 StoneBoyTony
 Encoded date : UTC 2012-03-06 17:09:31
 Writing application : mkvmerge v5.3.0 ('I could have danced') built on     
 Feb  9   2012 10:38:07
 Writing library : libebml v1.2.3 + libmatroska v1.3.0

 Video

 ID : 1
 Format : AVC
 Format/Info : Advanced Video Codec
 Format profile : High@L5.0
 Format settings, CABAC : Yes
 Format settings, ReFrames : 7 frames
 Muxing mode : Header stripping
 Codec ID : V_MPEG4/ISO/AVC
 Duration : 1h 38mn
 Bit rate : 1 035 Kbps
 Width : 888 pixels
 Height : 490 pixels
 Display aspect ratio : 16:9
 Frame rate : 25.000 fps
 Color space : YUV
 Chroma subsampling : 4:2:0
 Bit depth : 8 bits
 Scan type : Progressive
 Bits/(Pixel*Frame) : 0.095
 Stream size : 733 MiB (71%)
 Title : Encoded by StoneBoyTony
 Writing library : x264 core 120 r2164 da19765
 Language : Serbian
 Default : Yes
 Forced : Yes

 Audio

 ID : 2
 Format : AC-3
 Format/Info : Audio Coding 3
 Mode extension : CM (complete main)
 Muxing mode : Header stripping
 Codec ID : A_AC3
 Duration : 1h 38mn
 Bit rate mode : Constant
 Bit rate : 384 Kbps
 Channel(s) : 4 channels
 Channel positions : Front: L C R, Side: C
 Sampling rate : 48.0 KHz
 Bit depth : 16 bits
 Compression mode : Lossy
 Delay relative to video : 150ms
 Stream size : 272 MiB (27%)
 Title : Encoded by StoneBoyTony
 Language : Serbian
 Default : Yes
 Forced : Yes

 Subtitles included in video: English, Macedonian, Greek, Polish  

 Screensots  http://img829.imageshack.us/img829/1313/thewounds1998dvdripac3s.png  http://img545.imageshack.us/img545/1313/thewounds1998dvdripac3s.png  http://img513.imageshack.us/img513/1313/thewounds1998dvdripac3s.png  http://img848.imageshack.us/img848/1313/thewounds1998dvdripac3s.png  http://img515.imageshack.us/img515/1313/thewounds1998dvdripac3s.png  http://img259.imageshack.us/img259/1313/thewounds1998dvdripac3s.png  http://img641.imageshack.us/img641/1313/thewounds1998dvdripac3s.png  http://img803.imageshack.us/img803/1313/thewounds1998dvdripac3s.png  http://img403.imageshack.us/img403/1313/thewounds1998dvdripac3s.png  http://img32.imageshack.us/img32/1313/thewounds1998dvdripac3s.png  http://img833.imageshack.us/img833/1313/thewounds1998dvdripac3s.png  http://img7.imageshack.us/img7/1313/thewounds1998dvdripac3s.png

 Use VLC Media Player for best experience 

 I did my best the rest is yours. Enjoy and don't forget to SeeD	